<mxfile host="app.diagrams.net" modified="2023-05-26T05:38:33.172Z" agent="Mozilla/5.0 (Windows NT 10.0; Win64; x64) AppleWebKit/537.36 (KHTML, like Gecko) Chrome/113.0.0.0 Safari/537.36" version="21.3.2" etag="nPXvsIdyFxCO8H_JHjGJ" type="github">
  <diagram name="페이지-1" id="AFrU8A2zBjJoaOPg0dGC">
    <mxGraphModel>
      <root>
        <mxCell id="0" />
        <mxCell id="1" parent="0" />
      </root>
    </mxGraphModel>
  </diagram>
</mxfile>
